# xmcd
#
# Track frame offsets: 
#        150
#        49354
#        74995
#        86365
#        107980
#        134943
#        176816
#        197054
#        218310
#
# Disc length: 3107 seconds
#
# Revision: 2
# Processed by: cddbd v1.5.2PL0 Copyright (c) Steve Scherf et al.
# Submitted via: ExactAudioCopy v1.3
#
DISCID=910c2109
DTITLE=Carl Carlton - Woodstock and Wonderland - CD 1 (2017)
DYEAR=2017
DGENRE=Blues_Rock
TTITLE0=Woodstock
TTITLE1=The Weight
TTITLE2=Cissy Strut
TTITLE3=Don't Do It
TTITLE4=Atlantic City
TTITLE5=Little Red Rooster
TTITLE6=Further On Up The Road
TTITLE7=The Times They Are A-Changing
TTITLE8=Annie
EXTD=Live CD mit Aufnahmen von 2016
EXTT0=
EXTT1=
EXTT2=
EXTT3=
EXTT4=
EXTT5=
EXTT6=
EXTT7=
EXTT8=
PLAYORDER=
